<svg width="15" height="14" viewBox="0 0 15 14" fill="none" xmlns="http://www.w3.org/2000/svg">
<path d="M9.65 4.90009C10.6843 4.90009 11.6763 5.31098 12.4077 6.04237C13.1391 6.77376 13.55 7.76574 13.55 8.80009V13.3501H10.95V8.80009C10.95 8.4553 10.813 8.12464 10.5692 7.88085C10.3254 7.63705 9.99478 7.50009 9.65 7.50009C9.30522 7.50009 8.97456 7.63705 8.73076 7.88085C8.48696 8.12464 8.35 8.4553 8.35 8.80009V13.3501H5.75V8.80009C5.75 7.76574 6.16089 6.77376 6.89228 6.04237C7.62368 5.31098 8.61566 4.90009 9.65 4.90009V4.90009Z" stroke="#BC204B" stroke-linecap="round" stroke-linejoin="round"/>
<path d="M3.14999 5.54993H0.549988V13.3499H3.14999V5.54993Z" stroke="#BC204B" stroke-linecap="round" stroke-linejoin="round"/>
<path d="M1.84999 3.6C2.56796 3.6 3.14999 3.01797 3.14999 2.3C3.14999 1.58203 2.56796 1 1.84999 1C1.13202 1 0.549988 1.58203 0.549988 2.3C0.549988 3.01797 1.13202 3.6 1.84999 3.6Z" stroke="#BC204B" stroke-linecap="round" stroke-linejoin="round"/>
</svg>
