<svg width="15" height="15" viewBox="0 0 15 15" fill="none" xmlns="http://www.w3.org/2000/svg">
<path d="M10.75 1H4.25C2.45507 1 1 2.45507 1 4.25V10.75C1 12.5449 2.45507 14 4.25 14H10.75C12.5449 14 14 12.5449 14 10.75V4.25C14 2.45507 12.5449 1 10.75 1Z" stroke="#BC204B" stroke-linecap="round" stroke-linejoin="round"/>
<path d="M10.0998 7.09057C10.18 7.63153 10.0876 8.18401 9.83577 8.66943C9.5839 9.15485 9.18537 9.54849 8.69689 9.79436C8.2084 10.0402 7.65482 10.1258 7.11489 10.0389C6.57496 9.95205 6.07617 9.69713 5.68947 9.31043C5.30277 8.92373 5.04785 8.42494 4.96097 7.88501C4.87409 7.34508 4.95967 6.79151 5.20554 6.30302C5.45141 5.81453 5.84505 5.41601 6.33047 5.16413C6.81589 4.91226 7.36837 4.81986 7.90933 4.90007C8.46113 4.9819 8.97198 5.23903 9.36643 5.63347C9.76088 6.02792 10.018 6.53877 10.0998 7.09057Z" stroke="#BC204B" stroke-linecap="round" stroke-linejoin="round"/>
<path d="M11.075 3.92493H11.08" stroke="#BC204B" stroke-linecap="round" stroke-linejoin="round"/>
</svg>
