<svg width="24" height="24" viewBox="0 0 24 24" fill="none" xmlns="http://www.w3.org/2000/svg">
<path d="M12.625 10.7734V15H11.4961V10.7734H12.625ZM11.4258 9.67188C11.4258 9.50781 11.4831 9.3724 11.5977 9.26562C11.7122 9.15885 11.8659 9.10547 12.0586 9.10547C12.2487 9.10547 12.401 9.15885 12.5156 9.26562C12.6328 9.3724 12.6914 9.50781 12.6914 9.67188C12.6914 9.83594 12.6328 9.97135 12.5156 10.0781C12.401 10.1849 12.2487 10.2383 12.0586 10.2383C11.8659 10.2383 11.7122 10.1849 11.5977 10.0781C11.4831 9.97135 11.4258 9.83594 11.4258 9.67188Z" fill="#BC204B"/>
<circle cx="12" cy="12" r="7.5" stroke="#BC204B"/>
</svg>
